<svg width="622" height="142" viewBox="0 0 622 142" fill="none" xmlns="http://www.w3.org/2000/svg">
<path d="M0.175781 52.4285H20.6788V68.0607C23.4929 62.1485 27.5131 57.6393 32.8399 54.6331C38.2672 51.6269 44.4985 50.1238 51.4333 50.1238C67.0116 50.224 76.4591 55.6351 80.0773 66.1568C82.8914 61.2467 87.0121 57.3386 92.5399 54.4327C98.0676 51.5267 103.997 50.1238 110.128 50.1238C119.174 50.1238 126.109 51.9275 130.732 55.4347C135.355 58.8417 138.471 63.7518 139.978 70.165C141.586 76.478 142.491 84.9956 142.491 95.6174V139.007H121.887V95.5172C121.887 85.2962 120.782 77.9811 118.671 73.5721C116.661 69.163 112.641 66.9584 106.711 66.9584C98.7712 66.9584 92.7409 69.664 88.5197 75.0751C84.4995 80.3861 82.4894 87.4005 82.4894 96.0183V139.107H61.9863V92.511C61.9863 85.7972 61.6848 80.8871 61.1823 77.5803C60.6798 74.2735 59.2727 71.7683 57.0616 69.8644C54.75 67.9605 51.1318 67.0586 46.1066 67.0586C41.6843 67.0586 37.5636 68.3613 33.6439 71.0669C29.8248 73.6723 26.8096 77.2797 24.3975 81.789C22.0859 86.1981 20.9803 91.008 20.9803 96.1185V139.207H0.376788V52.4285H0.175781ZM216.262 141.011C209.226 141.011 202.794 139.307 197.166 135.9C191.638 132.393 187.718 128.385 185.607 123.775L185.205 139.107H165.507V0.321247H185.607V53.7312L184.703 68.4615C186.814 63.4512 191.035 59.1423 197.166 55.6351C203.497 52.0277 210.332 50.1238 217.669 50.1238C226.212 50.1238 233.749 52.0277 239.981 55.9357C246.413 59.7436 251.338 65.0545 254.755 71.9688C258.172 78.7828 259.881 86.6991 259.881 95.7176C259.881 104.937 257.871 112.953 253.85 119.667C249.931 126.481 244.604 131.692 237.971 135.299C231.337 139.207 224.101 141.011 216.262 141.011ZM212.844 124.076C221.086 124.076 227.317 121.471 231.739 116.36C236.161 111.049 238.373 104.235 238.373 95.9181C238.373 87.5007 236.161 80.6867 231.739 75.476C227.418 70.165 221.086 67.5597 212.844 67.5597C205.608 67.5597 199.578 70.0648 194.653 75.0751C189.728 79.9853 187.216 86.4987 187.216 94.5152V95.8179C187.216 101.229 188.321 106.039 190.633 110.348C193.045 114.657 196.16 117.963 199.879 120.368C203.899 122.874 208.221 124.076 212.844 124.076ZM277.368 52.4285H297.872V69.4636C299.882 63.6516 303.198 59.0421 307.721 55.5349C312.244 52.0277 317.47 50.224 323.299 50.224C327.319 50.224 330.134 50.6248 331.641 51.3263L328.626 71.8685C327.521 71.0669 325.008 70.7663 321.189 70.7663C315.259 70.7663 309.832 72.6702 304.907 76.478C300.083 80.2859 297.671 86.2983 297.671 94.6154V139.207H277.368V52.4285ZM383.301 141.011C372.949 141.011 364.305 139.007 357.37 134.999C350.436 130.89 345.31 125.379 341.993 118.565C338.677 111.65 337.068 104.035 337.068 95.9181C337.068 86.6991 338.978 78.6826 342.797 71.7683C346.717 64.8541 352.044 59.5432 358.878 55.9357C365.712 52.1279 373.451 50.224 381.994 50.224C395.361 50.224 405.311 53.9316 411.744 61.3469C418.277 68.6619 421.593 78.9832 421.593 92.3106C421.593 95.7176 421.392 99.2249 420.99 102.933H358.476C359.883 110.648 362.597 116.16 366.617 119.567C370.738 122.974 376.567 124.677 383.904 124.677C389.934 124.677 394.959 124.176 398.879 123.174C402.799 122.172 406.417 120.769 409.633 119.066L415.864 133.596C412.749 135.6 408.427 137.403 403 138.907C397.572 140.309 390.939 141.011 383.301 141.011ZM401.693 88.7032C401.794 80.8871 400.085 75.3758 396.567 72.2694C393.05 68.9626 388.025 67.3593 381.391 67.3593C368.125 67.3593 360.486 74.4739 358.476 88.7032H401.693ZM440.89 0.321247H461.192V139.107H440.89V0.321247ZM487.826 0.321247H508.128V139.107H487.826V0.321247ZM571.446 141.011C563.607 141.011 556.37 139.207 549.637 135.5C543.104 131.692 537.777 126.481 533.757 119.667C529.837 112.753 527.927 104.636 527.927 95.5172C527.927 86.4987 529.636 78.4822 533.053 71.7683C536.571 64.9543 541.596 59.6434 548.028 55.9357C554.461 52.1279 561.999 50.224 570.743 50.224C575.768 50.224 580.492 51.1258 584.914 52.8294C589.336 54.6331 593.055 56.8376 596.07 59.443C599.085 61.9481 601.095 64.4533 602.1 66.9584L602.502 52.4285H622V139.107H602.703L602.301 123.775C600.19 128.285 596.271 132.293 590.542 135.9C584.914 139.307 578.481 141.011 571.446 141.011ZM574.863 124.076C582.1 124.076 588.13 121.571 593.055 116.661C597.979 111.65 600.492 105.037 600.492 97.0203V95.7176C600.492 90.3065 599.386 85.4966 597.075 81.1877C594.763 76.8789 591.748 73.5721 587.828 71.1671C583.909 68.7621 579.587 67.5597 574.964 67.5597C566.923 67.5597 560.592 70.165 556.169 75.476C551.747 80.6867 549.536 87.4005 549.536 95.7176C549.536 104.135 551.647 111.049 555.968 116.26C560.391 121.471 566.622 124.076 574.863 124.076Z" fill="#0ED1D1"/>
</svg>
