<svg width="24" height="24" viewBox="0 0 24 24" fill="none" xmlns="http://www.w3.org/2000/svg">
<path fill-rule="evenodd" clip-rule="evenodd" d="M14.2617 24L12.8571 23.0173L16.9714 17.1429H21.7029C22.0248 17.1429 22.2857 16.8819 22.2857 16.56V6.58286C22.2854 6.26107 22.0246 6.00028 21.7029 6H6.58286C6.26115 6.00047 6.00047 6.26115 6 6.58286V16.56C6.00028 16.8818 6.26107 17.1426 6.58286 17.1429H13.7143V18.8571H6.58286C5.31475 18.8558 4.28708 17.8281 4.28571 16.56V6.58286C4.28713 5.31477 5.31477 4.28713 6.58286 4.28571H21.7029C22.971 4.28708 23.9986 5.31475 24 6.58286V16.56C23.9987 17.8281 22.971 18.8558 21.7029 18.8571H17.8635L14.2617 24ZM1.71429 13.7143H0V2.29714C0.00141713 1.02905 1.02905 0.00141713 2.29714 0H13.7143V1.71429H2.29714C1.97544 1.71476 1.71476 1.97544 1.71429 2.29714V13.7143Z" fill="white"/>
</svg>
