<svg width="7" height="15" viewBox="0 0 25 38" fill="none" xmlns="http://www.w3.org/2000/svg">
<path fill-rule="evenodd" clip-rule="evenodd" d="M12 1C7.02944 1 3 5.02944 3 10C3 14.9706 7.02944 19 12 19C16.9706 19 21 14.9706 21 10C21 5.02944 16.9706 1 12 1Z" stroke="white" stroke-width="2"/>
<path fill-rule="evenodd" clip-rule="evenodd" d="M25 38H22.5V31.75C22.4959 28.2999 19.7001 25.5041 16.25 25.5H8.75C5.2999 25.5041 2.50406 28.2999 2.5 31.75V38H0V31.75C0.00564826 26.9198 3.91985 23.0056 8.75 23H16.25C21.0802 23.0056 24.9944 26.9198 25 31.75V38Z" fill="white"/>
</svg>
