<svg width="49" height="85" viewBox="0 0 49 85" fill="none" xmlns="http://www.w3.org/2000/svg">
<path d="M47.6776 39.1832L10.5631 1.36508C9.69839 0.483984 8.54545 0.000244141 7.32469 0.000244141C6.10393 0.000244141 4.95099 0.483984 4.10324 1.36508L1.37348 4.14659C-0.406798 5.96061 -0.406798 8.91488 1.37348 10.7116L32.5538 42.483L1.33957 74.2889C0.474863 75.1527 0.00012207 76.3275 0.00012207 77.5714C0.00012207 78.8153 0.474863 79.9901 1.33957 80.8539L4.06933 83.6354C4.93403 84.5165 6.07002 85.0002 7.29078 85.0002C8.51154 85.0002 9.66448 84.5165 10.5122 83.6354L47.6776 45.7828C48.5423 44.9017 49.0171 43.7269 49.0001 42.483C49.0171 41.2391 48.5423 40.0643 47.6776 39.1832Z" fill="white"/>
</svg>
