<svg width="816" height="142" viewBox="0 0 816 142" fill="none" xmlns="http://www.w3.org/2000/svg">
<path d="M180.808 6.43383C180.808 79.7849 140.305 139.207 90.4545 139.207C40.604 139.207 0 79.6846 0 6.43383C0 4.3295 0 2.32537 0.100505 0.321243H17.3874C17.3874 1.42351 17.3874 2.52578 17.3874 3.72826C17.3874 54.2322 37.2874 97.2207 65.2277 113.655C54.5742 89.5049 47.6394 50.4244 47.6394 6.43383C47.6394 4.4297 47.6394 2.42558 47.6394 0.321243H67.0368V1.52372C67.0368 67.1589 77.5899 120.469 90.756 120.769H90.8565C90.957 120.769 91.0575 120.769 91.158 120.769C104.224 120.068 114.676 66.9584 114.676 1.52372V0.321243H133.069C133.069 2.32537 133.069 4.3295 133.069 6.43383C133.069 50.5246 126.134 89.5049 115.48 113.655C143.421 97.2207 163.321 54.2322 163.321 3.72826C163.321 2.62599 163.321 1.42351 163.321 0.321243H180.607C180.708 2.32537 180.808 4.3295 180.808 6.43383Z" fill="#0ED1D1"/>
<path d="M194.176 52.4285H214.679V68.0607C217.493 62.1485 221.513 57.6393 226.84 54.6331C232.267 51.6269 238.498 50.1238 245.433 50.1238C261.012 50.224 270.459 55.6351 274.077 66.1568C276.891 61.2467 281.012 57.3386 286.54 54.4327C292.068 51.5267 297.997 50.1238 304.128 50.1238C313.174 50.1238 320.109 51.9275 324.732 55.4347C329.355 58.8417 332.471 63.7518 333.978 70.165C335.586 76.478 336.491 84.9956 336.491 95.6174V139.007H315.887V95.5172C315.887 85.2962 314.782 77.9811 312.671 73.5721C310.661 69.163 306.641 66.9584 300.711 66.9584C292.771 66.9584 286.741 69.664 282.52 75.0751C278.499 80.3861 276.489 87.4005 276.489 96.0183V139.107H255.986V92.511C255.986 85.7972 255.685 80.8871 255.182 77.5803C254.68 74.2735 253.273 71.7683 251.062 69.8644C248.75 67.9605 245.132 67.0586 240.107 67.0586C235.684 67.0586 231.564 68.3613 227.644 71.0669C223.825 73.6723 220.81 77.2797 218.397 81.789C216.086 86.1981 214.98 91.008 214.98 96.1185V139.207H194.377V52.4285H194.176ZM410.262 141.011C403.226 141.011 396.794 139.307 391.166 135.9C385.638 132.393 381.718 128.385 379.607 123.775L379.205 139.107H359.506V0.321247H379.607V53.7312L378.703 68.4615C380.814 63.4512 385.035 59.1423 391.166 55.6351C397.497 52.0277 404.332 50.1238 411.669 50.1238C420.211 50.1238 427.749 52.0277 433.981 55.9357C440.413 59.7436 445.338 65.0545 448.755 71.9688C452.172 78.7828 453.881 86.6991 453.881 95.7176C453.881 104.937 451.871 112.953 447.85 119.667C443.931 126.481 438.604 131.692 431.971 135.299C425.337 139.207 418.101 141.011 410.262 141.011ZM406.844 124.076C415.086 124.076 421.317 121.471 425.739 116.36C430.161 111.049 432.373 104.235 432.373 95.9181C432.373 87.5007 430.161 80.6867 425.739 75.476C421.418 70.165 415.086 67.5597 406.844 67.5597C399.608 67.5597 393.578 70.0648 388.653 75.0751C383.728 79.9853 381.216 86.4987 381.216 94.5152V95.8179C381.216 101.229 382.321 106.039 384.633 110.348C387.045 114.657 390.16 117.963 393.879 120.368C397.899 122.874 402.221 124.076 406.844 124.076ZM471.369 52.4285H491.872V69.4636C493.882 63.6516 497.198 59.0421 501.721 55.5349C506.244 52.0277 511.47 50.224 517.299 50.224C521.319 50.224 524.134 50.6248 525.641 51.3263L522.626 71.8685C521.52 71.0669 519.008 70.7663 515.189 70.7663C509.259 70.7663 503.832 72.6702 498.907 76.478C494.083 80.2859 491.671 86.2983 491.671 94.6154V139.207H471.369V52.4285ZM577.301 141.011C566.949 141.011 558.305 139.007 551.37 134.999C544.436 130.89 539.31 125.379 535.993 118.565C532.677 111.65 531.068 104.035 531.068 95.9181C531.068 86.6991 532.978 78.6826 536.797 71.7683C540.717 64.8541 546.044 59.5432 552.878 55.9357C559.712 52.1279 567.451 50.224 575.994 50.224C589.361 50.224 599.311 53.9316 605.744 61.3469C612.277 68.6619 615.593 78.9832 615.593 92.3106C615.593 95.7177 615.392 99.2249 614.99 102.933H552.476C553.883 110.648 556.597 116.16 560.617 119.567C564.738 122.974 570.567 124.677 577.904 124.677C583.934 124.677 588.959 124.176 592.879 123.174C596.799 122.172 600.417 120.769 603.633 119.066L609.864 133.596C606.749 135.6 602.427 137.403 597 138.907C591.572 140.309 584.939 141.011 577.301 141.011ZM595.693 88.7032C595.794 80.8871 594.085 75.3758 590.567 72.2694C587.05 68.9626 582.024 67.3593 575.391 67.3593C562.125 67.3593 554.486 74.4739 552.476 88.7032H595.693ZM634.89 0.321247H655.192V139.107H634.89V0.321247ZM681.826 0.321247H702.128V139.107H681.826V0.321247ZM765.446 141.011C757.607 141.011 750.37 139.207 743.637 135.5C737.104 131.692 731.777 126.481 727.757 119.667C723.837 112.753 721.927 104.636 721.927 95.5172C721.927 86.4987 723.636 78.4822 727.053 71.7683C730.571 64.9543 735.596 59.6434 742.028 55.9357C748.461 52.1279 755.999 50.224 764.743 50.224C769.768 50.224 774.492 51.1258 778.914 52.8294C783.336 54.6331 787.055 56.8376 790.07 59.443C793.085 61.9481 795.095 64.4533 796.1 66.9584L796.502 52.4285H816V139.107H796.703L796.301 123.775C794.191 128.285 790.271 132.293 784.542 135.9C778.914 139.307 772.481 141.011 765.446 141.011ZM768.863 124.076C776.1 124.076 782.13 121.571 787.055 116.661C791.979 111.65 794.492 105.037 794.492 97.0203V95.7176C794.492 90.3065 793.386 85.4966 791.075 81.1877C788.763 76.8789 785.748 73.5721 781.828 71.1671C777.909 68.7621 773.587 67.5597 768.964 67.5597C760.923 67.5597 754.592 70.165 750.169 75.476C745.747 80.6867 743.536 87.4005 743.536 95.7176C743.536 104.135 745.647 111.049 749.968 116.26C754.391 121.471 760.622 124.076 768.863 124.076Z" fill="#0ED1D1"/>
</svg>
