<svg width="50" height="38" viewBox="0 0 50 38" fill="none" xmlns="http://www.w3.org/2000/svg">
<path d="M49.0402 1.64261C49.0402 21.4188 38.0639 37.4613 24.5201 37.4613C10.9763 37.4613 0 21.4242 0 1.64261C0 1.09255 0.00871827 0.547898 0.0272446 0.00324187H4.70677C4.70024 0.305828 4.69806 0.609495 4.69806 0.914243C4.69806 14.5306 10.1045 26.1413 17.6839 30.5796C14.7938 24.0697 12.9205 13.5299 12.9205 1.64261C12.9205 1.09255 12.9205 0.547898 12.9325 0.00324187H18.2059V0.327442C18.2059 18.0385 21.0808 32.4092 24.6356 32.5021C24.6476 32.5037 24.6597 32.5037 24.6716 32.5021C24.695 32.5032 24.7185 32.501 24.7414 32.4956C28.2777 32.313 31.1318 17.9769 31.1318 0.3242V0H36.1121C36.1209 0.540333 36.1241 1.08931 36.1241 1.63937C36.1241 13.5267 34.2508 24.0621 31.3607 30.5764C38.9358 26.1413 44.3422 14.5339 44.3422 0.914243C44.3422 0.609495 44.3393 0.305828 44.3335 0.00324187H49.0195C49.0315 0.547898 49.0402 1.09255 49.0402 1.64261Z" fill="#0EDEDE"/>
</svg>
