<svg width="620" height="138" viewBox="0 0 323 56" fill="none" xmlns="http://www.w3.org/2000/svg">
<path d="M72 2.41165C72 31.4467 55.8848 55 36 55C16.1152 55 0 31.4546 0 2.41165C0 1.60407 0.0128 0.804414 0.04 0.00475965H6.9104C6.9008 0.449012 6.8976 0.894849 6.8976 1.34227C6.8976 21.3336 14.8352 38.3802 25.9632 44.8964C21.72 35.3387 18.9696 19.8644 18.9696 2.41165C18.9696 1.60407 18.9696 0.804414 18.9872 0.00475965H26.7296V0.480744C26.7296 26.4838 30.9504 47.5826 36.1696 47.719C36.1871 47.7214 36.2049 47.7214 36.2224 47.719C36.2568 47.7206 36.2913 47.7174 36.3248 47.7095C41.5168 47.4414 45.7072 26.3933 45.7072 0.475984V0H53.0192C53.032 0.793307 53.0368 1.59931 53.0368 2.40689C53.0368 19.8597 50.2864 35.3276 46.0432 44.8917C57.1648 38.3802 65.1024 21.3384 65.1024 1.34227C65.1024 0.894849 65.0981 0.449012 65.0896 0.00475965H71.9696C71.9872 0.804414 72 1.60407 72 2.41165Z" fill="#0EDEDE"/>
<path d="M77 20.747H85.0936V26.9858C86.1933 24.6299 87.792 22.8505 89.8897 21.6476C92.0383 20.4458 94.4867 19.8448 97.2349 19.8448C103.38 19.8937 107.151 22.0233 108.55 26.2335C109.649 24.2793 111.298 22.7257 113.497 21.5727C115.644 20.4333 118.037 19.8399 120.465 19.8448C124.067 19.8448 126.79 20.5462 128.634 21.9489C130.483 23.3027 131.708 25.2569 132.306 27.8115C132.956 30.3172 133.28 33.6996 133.28 37.9586V55.2468H125.112V37.8885C125.112 33.8303 124.688 30.924 123.841 29.1695C123.042 27.4162 121.469 26.5395 119.121 26.5395C115.972 26.5395 113.574 27.6165 111.927 29.7705C110.328 31.8756 109.528 34.657 109.527 38.1149V55.2468H101.432V36.6819C101.432 34.0253 101.332 32.0456 101.132 30.7428C100.931 29.44 100.381 28.4129 99.482 27.6616C98.5846 26.9093 97.1358 26.5336 95.1356 26.5347C93.3651 26.5417 91.6392 27.0924 90.1901 28.1127C88.692 29.1648 87.4679 30.5929 86.5175 32.3973C85.6153 34.1646 85.1529 36.1246 85.1699 38.1101V55.2468H77V20.747ZM162.483 55.9991C159.684 55.9991 157.161 55.3228 154.914 53.97C152.716 52.5652 151.193 50.9617 150.343 49.1594L150.184 55.2468H142.397V0H150.343V21.273L149.976 27.1356C150.824 25.1304 152.472 23.4265 154.922 22.0238C157.374 20.5847 160.166 19.8322 163.007 19.8448C166.405 19.8448 169.353 20.6216 171.851 22.1752C174.392 23.6712 176.428 25.8964 177.696 28.5638C179.045 31.2693 179.719 34.4264 179.719 38.0352C179.719 41.6938 178.92 44.8759 177.321 47.5814C175.848 50.2145 173.667 52.3791 171.026 53.8281C168.414 55.2812 165.47 56.0293 162.483 55.9991ZM161.134 49.2343C164.382 49.2343 166.88 48.2073 168.628 46.1532C170.376 44.0471 171.25 41.341 171.25 38.0352C171.25 34.6772 170.376 31.9712 168.628 29.9171C166.933 27.8109 164.435 26.7584 161.134 26.7595C158.286 26.7595 155.888 27.7615 153.94 29.7657C151.991 31.7199 151.017 34.3005 151.017 37.5076V38.0352C151.017 40.1902 151.467 42.1194 152.366 43.8228C153.235 45.4413 154.498 46.8123 156.039 47.8077C157.57 48.7542 159.335 49.2486 161.134 49.2343ZM186.627 20.747H194.721V27.5118C195.521 25.2059 196.82 23.3516 198.617 21.9489C200.366 20.5635 202.535 19.8209 204.763 19.8448C206.361 19.8448 207.461 19.9952 208.06 20.2959L206.937 28.4889C206.486 28.1882 205.512 28.0378 204.014 28.0378C201.665 28.0378 199.517 28.7891 197.569 30.2917C195.669 31.7964 194.72 34.2017 194.721 37.5076V55.2468H186.627V20.747ZM228.548 55.9991C224.451 55.9991 221.028 55.1974 218.28 53.5938C215.533 51.9414 213.51 49.763 212.21 47.0586C210.912 44.3021 210.262 41.2959 210.261 38.0399C210.261 34.3813 211.011 31.1742 212.51 28.4188C213.98 25.7405 216.192 23.5469 218.879 22.1035C221.578 20.5999 224.625 19.8486 228.022 19.8496C233.319 19.8496 237.239 21.3278 239.782 24.284C242.385 27.1904 243.686 31.3001 243.685 36.6133C243.682 38.019 243.607 39.4235 243.461 40.8214H218.73C219.28 43.8786 220.354 46.0836 221.953 47.4364C223.6 48.7902 225.873 49.4665 228.772 49.4655C231.17 49.4655 233.144 49.2652 234.692 48.8645C236.179 48.4876 237.616 47.9304 238.97 47.2052L241.444 52.9929C240.194 53.7952 238.495 54.4966 236.347 55.0969C234.2 55.6973 231.6 55.9981 228.548 55.9991ZM235.817 35.1788C235.865 32.0716 235.191 29.8932 233.794 28.6435C232.393 27.3418 230.394 26.6904 227.798 26.6893C222.551 26.6893 219.529 29.5207 218.73 35.1836L235.817 35.1788ZM251.346 0H259.365V55.2468H251.346V0ZM269.9 0H277.919V55.2468H269.9V0ZM302.991 55.9991C299.981 56.0233 297.014 55.276 294.373 53.8281C291.759 52.3085 289.587 50.1284 288.075 47.5049C286.528 44.7495 285.755 41.544 285.755 37.8885C285.755 34.2808 286.429 31.1243 287.778 28.4188C289.107 25.7876 291.162 23.5954 293.699 22.1035C296.242 20.5999 299.239 19.8486 302.692 19.8496C304.615 19.8355 306.523 20.1927 308.311 20.9016C309.923 21.5208 311.419 22.4102 312.734 23.5317C313.932 24.5348 314.732 25.5374 315.132 26.5395L315.281 20.7518H323V55.2468H315.356L315.207 49.1594C314.359 50.9659 312.81 52.5695 310.56 53.97C308.312 55.3238 305.789 56.0002 302.991 55.9991ZM304.34 49.2343C307.188 49.2343 309.586 48.2572 311.534 46.303C313.482 44.2978 314.457 41.6944 314.457 38.4926V37.965C314.457 35.8121 314.007 33.8829 313.107 32.1773C312.269 30.538 311 29.1599 309.436 28.1924C307.906 27.2434 306.139 26.7462 304.34 26.7579C301.143 26.7579 298.67 27.8104 296.922 29.9155C295.173 31.9696 294.298 34.6501 294.298 37.9571C294.298 41.315 295.146 44.0465 296.841 46.1516C298.594 48.2057 301.094 49.2333 304.34 49.2343Z" fill="#0EDEDE"/>
</svg>
