<svg width="22" height="25" viewBox="0 0 22 25" fill="none" xmlns="http://www.w3.org/2000/svg">
<path fill-rule="evenodd" clip-rule="evenodd" d="M21.7546 16.3223L19.4615 14.0377V10.1538C19.4616 5.80829 16.1699 2.16917 11.8462 1.73461V0H10.1538V1.73461C5.83008 2.16917 2.53842 5.80829 2.53847 10.1538V14.0377L0.245398 16.3223C0.0870101 16.482 -0.00128617 16.6981 1.41614e-05 16.9231V19.4615C1.41614e-05 19.9288 0.37885 20.3077 0.846167 20.3077H6.76924C6.76924 22.6442 8.66341 24.5384 11 24.5384C13.3366 24.5384 15.2308 22.6442 15.2308 20.3077H21.1538C21.6212 20.3077 22 19.9288 22 19.4615V16.9231C22.0013 16.6981 21.913 16.482 21.7546 16.3223ZM10.9999 22.8461C9.59796 22.8461 8.46145 21.7096 8.46145 20.3077H13.5384C13.5384 21.7096 12.4019 22.8461 10.9999 22.8461ZM20.3075 18.6154H1.69218V17.27L3.98525 14.9769C4.14157 14.8193 4.2297 14.6066 4.23064 14.3846V10.1538C4.23064 6.4153 7.26132 3.38462 10.9999 3.38462C14.7384 3.38462 17.7691 6.4153 17.7691 10.1538V14.3846C17.7678 14.6095 17.8561 14.8257 18.0145 14.9854L20.3075 17.27V18.6154Z" fill="white"/>
</svg>
