<svg width="260" height="261" viewBox="0 0 260 261" fill="none" xmlns="http://www.w3.org/2000/svg">
<path d="M260 130.5C260 202.297 201.797 260.5 130 260.5C58.203 260.5 0 202.297 0 130.5C0 58.703 58.203 0.5 130 0.5C201.797 0.5 260 58.703 260 130.5Z" fill="#0C0C0C" fill-opacity="0.4"/>
<g clip-path="url(#clip0_5_12)">
<path d="M165.649 94.4041C165.649 113.995 149.663 129.922 130 129.922C110.337 129.922 94.3509 113.995 94.3509 94.4041C94.3509 74.8136 110.337 58.886 130 58.886C149.663 58.886 165.649 74.8136 165.649 94.4041ZM107.302 134.501C85.9121 143.602 72.0702 164.469 72.0702 187.639C72.0702 190.081 74.0755 192.079 76.5263 192.079M183.474 192.079C185.925 192.079 187.93 190.081 187.93 187.639C187.93 164.469 174.088 143.602 152.698 134.501C151.529 134.001 150.192 134.029 149.05 134.556C136.991 140.189 123.009 140.189 110.95 134.556C109.808 134.001 108.471 134.001 107.302 134.501C85.9121 143.602 72.0702 164.469 72.0702 187.639C72.0702 190.081 74.0755 192.079 76.5263 192.079H183.474Z" fill="black"/>
</g>
<defs>
<clipPath id="clip0_5_12">
<rect width="115.86" height="133.193" fill="white" transform="translate(72.0702 58.886)"/>
</clipPath>
</defs>
</svg>
